# xmcd
#
# Track frame offsets: 
#        150
#        16622
#        33052
#        51426
#        72934
#        93404
#        112537
#        131837
#        151241
#        169907
#        186393
#        200705
#        226212
#
# Disc length: 3215 seconds
#
# Revision: 0
# Processed by: cddbd v1.5.2PL0 Copyright (c) Steve Scherf et al.
# Submitted via: ExactAudioCopy v1.3
#
DISCID=a40c8d0d
DTITLE=Aurelien Morro and The Checkers - Check It Out
DYEAR=2015
DGENRE=Funky Blues
TTITLE0=Pack It Up
TTITLE1=Way South
TTITLE2=I Need You
TTITLE3=Wake Up Call
TTITLE4=Cross The Line
TTITLE5=I Know
TTITLE6=Clean Break
TTITLE7=Down In Memphis
TTITLE8=Dirty Pool
TTITLE9=Big Leg Woman
TTITLE10=Walking
TTITLE11=Cissy Strut
TTITLE12=The Wind Cries Mary
EXTD=
EXTT0=
EXTT1=
EXTT2=
EXTT3=
EXTT4=
EXTT5=
EXTT6=
EXTT7=
EXTT8=
EXTT9=
EXTT10=
EXTT11=
EXTT12=
PLAYORDER=
